<?xml version="1.0" encoding="UTF-8" standalone="no"?>
<!-- Generator: Adobe Illustrator 18.1.1, SVG Export Plug-In . SVG Version: 6.00 Build 0)  -->
<svg id="Capa_1" style="enable-background:new 0 0 398.528 398.528" xmlns="http://www.w3.org/2000/svg" xml:space="preserve" viewBox="0 0 398.528 398.528" version="1.1" y="0px" x="0px" xmlns:xlink="http://www.w3.org/1999/xlink">
	<path d="m315.23 9.015c-3.35-5.739-9.55-9.015-16.99-9.015h-91.308c-10.9 0-22.224 7.113-26.93 16.924l-96.83 201.12c-3.162 6.56-2.967 13.518 0.471 19.037 3.463 5.568 9.592 8.811 16.859 8.966l71.662 0.902-51.877 129.68c-1.276 3.235-3.959 10.014 0.821 16.981 2.089 3.056 5.674 4.926 9.364 4.926h0.837c6.999 0 11.217-5.308 13.241-7.868l167.64-210.5c7.153-8.966 4.202-17.013 3.121-19.354-1.122-2.243-5.625-9.592-17.046-9.592h-53.34l69.8-122.98c3.66-6.498 3.86-13.521 0.52-19.235z" fill="#24aa60"/>
</svg>
