<?xml version="1.0" encoding="UTF-8" standalone="no"?>
<svg xmlns="http://www.w3.org/2000/svg" height="512" width="512" version="1.1" xmlns:xlink="http://www.w3.org/1999/xlink" viewBox="0 0 60 60"><!-- Generator: Sketch 51.3 (57544) - http://www.bohemiancoding.com/sketch -->
 <title>035 - Creative Thinking</title>
 <desc>Created with Sketch.</desc>
 <g id="Page-1" fill-rule="evenodd" fill="none">
  <g id="035---Creative-Thinking" fill-rule="nonzero" fill="#000">
   <path id="Shape" d="m51.768 44c0.318-1.686 0.309-3.417-0.024-5.1l4.58-11.053v-0.022c0.742-2.032 1.83-3.92 3.215-5.582 0.345-0.364 0.483-0.877 0.369-1.365l-1.878-8.11c-0.022-0.085-0.056-0.166-0.1-0.242-0.008-0.015-0.011-0.033-0.019-0.047s-0.043-0.048-0.063-0.074c-0.041-0.06-0.088-0.115-0.141-0.165-0.035-0.024-0.071-0.047-0.109-0.066-0.049-0.036-0.101-0.067-0.155-0.094-0.075-0.028-0.154-0.048-0.234-0.057-0.023 0-0.043-0.015-0.066-0.017-0.192-0.013-0.383 0.03-0.551 0.123-0.015 0.008-0.033 0.011-0.048 0.02h-0.01l-7.061 4.407c-0.428 0.265-0.693 0.727-0.706 1.23-0.196 2.159-0.765 4.268-1.681 6.233v0.011l-2.289 5.533c-1.123-0.597-2.326-1.032-3.572-1.29 0.472-3.255 0.645-6.546 0.518-9.833 1.862-2.233 2.755-5.117 2.482-8.012-0.625-5.828-5.892-10.037-6.117-10.214-0.338-0.26631-0.809-0.28634-1.168-0.04972-0.36 0.23662-0.528 0.67678-0.417 1.0927 0.515 1.934 0.069 3.975-3.735 8.172-1.709 1.65-2.251 4.17-1.371 6.377 0.336 0.844 0.818 1.623 1.424 2.3-0.242 1.545-0.432 3.008-0.563 4.433-0.226 2.357-0.284 4.727-0.174 7.092-0.892 0.484-1.727 1.066-2.49 1.735l-4.85-20.74c0-0.021-0.02-0.036-0.026-0.055-0.016-0.067-0.04-0.131-0.07-0.193l-4.954-9.149c-0.496-0.91573-1.543-1.3863-2.557-1.1488-1.014 0.23743-1.743 1.1242-1.781 2.1648l-0.376 10.395c0 0.075 0.009 0.15 0.025 0.223v0.045l4.948 21.117c-0.781 0.034-1.555 0.15-2.312 0.345l-5.443-13.145c-0.436-1.005-1.594-1.479-2.61-1.069l-8.319 3.444c-1.0181 0.425-1.502 1.592-1.083 2.613l7.382 17.808c-4.3265 0.227-7.6848 3.859-7.5732 8.19 0.11171 4.331 3.6527 7.785 7.9852 7.789h44c2.858-0.041 5.477-1.605 6.87-4.1 1.393-2.496 1.349-5.546-0.116-8-1.465-2.455-4.128-3.941-6.986-3.9zm-1.019-25.884l4.192-2.616-1.484 3.584c-0.212 0.51 0.031 1.095 0.541 1.307s1.095-0.031 1.307-0.541l1.484-3.584 1.111 4.813c-1.189 1.45-2.165 3.062-2.9 4.787-1.043 0.483-2.24 0.508-3.302 0.069s-1.891-1.302-2.288-2.381c0.702-1.74 1.153-3.571 1.339-5.438zm-2.3 7.851c0.662 0.809 1.52 1.434 2.493 1.815 0.773 0.333 1.605 0.508 2.447 0.516 0.203-0.001 0.405-0.013 0.606-0.037l-3.191 7.7c-0.956-2.107-2.434-3.934-4.294-5.309l1.939-4.685zm-13.7-7.142l5.024 0.307c0.031 0.934 0.02 1.9-0.011 2.881-1.674 0.12-3.356 0.038-5.01-0.242-0.126-0.018-0.249-0.032-0.374-0.049 0.1-0.942 0.222-1.896 0.369-2.897h0.002zm-0.477-8.053c2.655-2.929 4.031-5.182 4.351-7.3 1.908 1.9635 3.168 4.4656 3.609 7.168 0.21 2.353-0.517 4.693-2.024 6.512-1.975-0.12-3.929-0.24-5.861-0.36-0.83-0.776-1.308-1.857-1.322-2.994-0.015-1.136 0.435-2.229 1.245-3.026h0.002zm-0.076 12.943l0.29 0.038c1.289 0.199 2.589 0.31 3.893 0.331 0.414 0 0.85-0.033 1.287-0.067-0.091 1.287-0.24 2.631-0.429 4.02-0.247-0.013-0.489-0.037-0.737-0.037-1.51 0.003-3.008 0.261-4.432 0.763-0.046-1.684-0.004-3.369 0.126-5.048h0.002zm-7.735 11.694l-2.861-12.187c-0.134-0.529-0.666-0.853-1.197-0.728-0.532 0.124-0.865 0.651-0.75 1.184l2.571 10.969c-0.707-0.253-1.437-0.435-2.18-0.543l-4.389-18.73c0.615 0.28 1.282 0.425 1.958 0.426 0.063 0 0.13-0.009 0.194-0.012l0.707 3.019c0.076 0.353 0.337 0.638 0.683 0.745 0.345 0.106 0.721 0.018 0.983-0.231s0.37-0.62 0.281-0.97l-0.708-3.021c0.678-0.3 1.277-0.756 1.747-1.33l4.462 19.079c-0.579 0.723-1.082 1.504-1.501 2.33zm-6.11-21.7c-1.279 0.248-2.585-0.275-3.339-1.337l0.127-3.522c0.348 0.065 0.701 0.0985 1.055 0.1 0.342 0.0014 0.683-0.0365 1.016-0.113 0.675-0.1772 1.306-0.491 1.854-0.922l1.684 3.108c-0.201 1.29-1.139 2.342-2.397 2.688v-0.002zm-2.739-11.682c0.136-0.0315 0.277 0.0314 0.344 0.154l2.144 3.965c-0.387 0.3499-0.849 0.6065-1.35 0.75-0.512 0.0941-1.04 0.0691-1.541-0.073l0.163-4.506c0.005-0.1397 0.104-0.2585 0.24-0.29zm-7.237 19.973l0.764 1.846-3.7 1.532c-0.4386 0.184-0.6868 0.652-0.5933 1.118 0.0934 0.467 0.5026 0.803 0.9783 0.804 0.1314 0 0.2615-0.026 0.383-0.076l3.7-1.533 0.765 1.848-1.851 0.767c-0.441 0.183-0.692 0.652-0.598 1.12 0.093 0.468 0.505 0.805 0.982 0.804 0.131 0 0.261-0.026 0.382-0.076l1.851-0.767 0.765 1.848-3.703 1.535c-0.441 0.183-0.6917 0.652-0.5983 1.12 0.0935 0.468 0.5053 0.805 0.9823 0.804 0.131 0 0.261-0.026 0.382-0.076l3.7-1.532 0.809 1.953c-3.259 1.487-5.648 4.396-6.475 7.881l-7.248-17.476 8.323-3.444zm41.625 36h-44c-3.3137 0-6-2.686-6-6s2.6863-6 6-6c0.5794-0.002 1.156 0.082 1.711 0.248 0.3 0.091 0.625 0.035 0.878-0.149s0.405-0.477 0.411-0.79c0.071-3.564 2.131-6.788 5.336-8.35 3.204-1.562 7.013-1.198 9.864 0.941 0.252 0.188 0.577 0.246 0.879 0.157 0.301-0.088 0.543-0.313 0.654-0.607 1.954-5.207 7.353-8.27 12.825-7.274 5.471 0.995 9.447 5.763 9.442 11.324 0.002 1.144-0.168 2.281-0.505 3.374-0.105 0.34-0.022 0.71 0.219 0.972s0.603 0.376 0.951 0.3c0.438-0.097 0.886-0.145 1.335-0.146 3.314 0 6 2.686 6 6s-2.686 6-6 6z"/>
   <path id="Shape" d="m38.685 15.7c0.314 0.001 0.61-0.145 0.8-0.395 1.248-1.69 1.731-3.826 1.33-5.888-0.085-0.3526-0.355-0.6314-0.704-0.7285-0.35-0.097-0.725 0.0029-0.98 0.2611-0.254 0.2581-0.35 0.6341-0.248 0.9824 0.239 1.465-0.118 2.966-0.992 4.166-0.227 0.303-0.264 0.708-0.094 1.047 0.169 0.339 0.515 0.553 0.894 0.553l-0.006 0.002z"/>
   <path id="Shape" d="m37.37 46c-0.744 0.002-1.477 0.173-2.145 0.5-1.799-2.462-5.158-3.183-7.809-1.676-2.65 1.506-3.75 4.761-2.556 7.566 0.157 0.369 0.519 0.608 0.92 0.608 0.135 0 0.268-0.027 0.392-0.08 0.244-0.104 0.437-0.301 0.536-0.547s0.096-0.521-0.008-0.765c-0.218-0.507-0.33-1.054-0.33-1.606 0-2.209 1.791-4 4-4 1.552-0.008 2.965 0.891 3.615 2.3 0.022 0.033 0.045 0.064 0.07 0.094 0.016 0.034 0.033 0.068 0.053 0.1 0.018 0.022 0.044 0.032 0.064 0.053 0.047 0.049 0.099 0.092 0.155 0.13 0.05 0.038 0.104 0.072 0.16 0.1 0.058 0.024 0.118 0.043 0.18 0.056 0.061 0.016 0.124 0.026 0.188 0.029 0.13-0.001 0.259-0.023 0.382-0.064 0.027-0.005 0.053-0.011 0.079-0.019 0.032-0.021 0.064-0.044 0.093-0.069 0.036-0.016 0.071-0.034 0.105-0.054 0.525-0.425 1.18-0.656 1.856-0.656 1.169 0.002 2.231 0.683 2.72 1.745 0.229 0.503 0.822 0.724 1.325 0.495s0.724-0.822 0.495-1.325c-0.814-1.775-2.587-2.913-4.54-2.915z"/>
   <path id="Shape" d="m17.684 39.051c-0.151 0.049-3.684 1.271-3.684 4.949 0 0.552 0.448 1 1 1s1-0.448 1-1c0.082-1.395 0.999-2.602 2.322-3.053 0.525-0.176 0.807-0.744 0.631-1.269s-0.744-0.807-1.269-0.631v0.004z"/>
   <path id="Shape" d="m31.757 37.97c0.079 0.02 0.161 0.03 0.243 0.03 0.458 0 0.858-0.312 0.969-0.757 0.46-1.867 2.113-3.196 4.036-3.243 0.552-0.001 0.999-0.45 0.997-1.002-0.001-0.553-0.45-0.999-1.002-0.998-2.842 0.038-5.299 1.995-5.97 4.757-0.134 0.536 0.191 1.079 0.727 1.213z"/>
  </g>
 </g>
</svg>
