<?xml version="1.0" encoding="UTF-8" standalone="no"?>
<!-- Generator: Adobe Illustrator 19.0.0, SVG Export Plug-In . SVG Version: 6.00 Build 0)  -->
<svg id="Capa_1" style="enable-background:new 0 0 512.008 512.008" xmlns="http://www.w3.org/2000/svg" xml:space="preserve" viewBox="0 0 512.008 512.008" version="1.1" y="0px" x="0px" xmlns:xlink="http://www.w3.org/1999/xlink">
		<path d="m368.01 144c-26.464 0-48 21.536-48 48s21.536 48 48 48 48-21.536 48-48-21.54-48-48-48zm0 64c-8.832 0-16-7.2-16-16s7.168-16 16-16c8.832 0 16 7.2 16 16s-7.17 16-16 16z"/>
		<path d="m176.01 144c-26.464 0-48 21.536-48 48s21.536 48 48 48 48-21.536 48-48-21.54-48-48-48zm0 64c-8.832 0-16-7.2-16-16s7.168-16 16-16c8.832 0 16 7.2 16 16s-7.17 16-16 16z"/>
		<path d="m304.01 352h-96c-8.832 0-16 7.168-16 16s7.168 16 16 16h96c8.832 0 16-7.168 16-16 0-8.83-7.17-16-16-16z"/>
		<path d="m256.01 0.004c-141.15 0-256 114.85-256 256 0 26.976 4.256 52.928 12 77.376l-7.328 7.328c-6.24 6.24-6.24 16.352 0 22.624 3.136 3.104 7.232 4.672 11.328 4.672 3.104 0 6.048-1.184 8.736-2.976 41.024 86.72 129.12 146.98 231.26 146.98 141.15 0 256-114.85 256-256s-114.85-256-256-256zm0 480c-93.216 0-173.25-57.28-206.94-138.43l60.16-60.16c18.72 13.984 41.664 22.592 66.784 22.592 61.76 0 112-50.24 112-112s-50.24-112-112-112-112 50.24-112 112c0 25.12 8.608 48.064 22.624 66.752l-48.48 48.48c-3.872-16.48-6.144-33.568-6.144-51.232 0-123.49 100.48-224 224-224s224 100.51 224 224-100.48 224-224 224zm-160-288c0-44.128 35.904-80 80-80s80 35.872 80 80-35.904 80-80 80c-22.048 0-42.016-8.96-56.512-23.424 0 0-0.032-0.032-0.032-0.064s-0.032 0-0.032 0c-14.47-14.5-23.432-34.47-23.432-56.52z"/>
</svg>
