<svg height="512" viewBox="0 0 64 64" width="512" xmlns="http://www.w3.org/2000/svg"><g id="database_server" data-name="database server"><path d="m8 8h2v2h-2z"/><path d="m8 40h2v2h-2z"/><path d="m4 37v8a1 1 0 0 0 1 1h19v-10h-19a1 1 0 0 0 -1 1zm10 2a1 1 0 0 1 1-1h4a1 1 0 0 1 1 1v4a1 1 0 0 1 -1 1h-4a1 1 0 0 1 -1-1zm-8 0a1 1 0 0 1 1-1h4a1 1 0 0 1 1 1v4a1 1 0 0 1 -1 1h-4a1 1 0 0 1 -1-1z"/><path d="m14 32h10v2h-10z"/><path d="m16 40h2v2h-2z"/><path d="m8 32h4v2h-4z"/><path d="m34 16h4v2h-4z"/><path d="m42 13v-8a1 1 0 0 0 -1-1h-36a1 1 0 0 0 -1 1v8a1 1 0 0 0 1 1h36a1 1 0 0 0 1-1zm-30-2a1 1 0 0 1 -1 1h-4a1 1 0 0 1 -1-1v-4a1 1 0 0 1 1-1h4a1 1 0 0 1 1 1zm8 0a1 1 0 0 1 -1 1h-4a1 1 0 0 1 -1-1v-4a1 1 0 0 1 1-1h4a1 1 0 0 1 1 1zm16 1h-14v-2h14zm0-4h-14v-2h14zm4 4h-2v-2h2zm0-4h-2v-2h2z"/><path d="m16 8h2v2h-2z"/><path d="m14 16h18v2h-18z"/><path d="m8 16h4v2h-4z"/><path d="m8 24h2v2h-2z"/><ellipse cx="43" cy="26" rx="17" ry="4"/><path d="m41 20h-36a1 1 0 0 0 -1 1v8a1 1 0 0 0 1 1h19v-4c0-3.68 8.34-5.72 17.14-5.97a.7.7 0 0 0 -.14-.03zm-29 7a1 1 0 0 1 -1 1h-4a1 1 0 0 1 -1-1v-4a1 1 0 0 1 1-1h4a1 1 0 0 1 1 1zm8 0a1 1 0 0 1 -1 1h-4a1 1 0 0 1 -1-1v-4a1 1 0 0 1 1-1h4a1 1 0 0 1 1 1z"/><path d="m26 38.82v7.18c0 1.36 6 4 17 4s17-2.64 17-4v-7.18c-3.29 2.09-10.16 3.18-17 3.18s-13.71-1.09-17-3.18zm18 9.18h-2v-2h2z"/><path d="m26 48.82v7.18c0 1.36 6 4 17 4s17-2.64 17-4v-7.18c-3.29 2.09-10.16 3.18-17 3.18s-13.71-1.09-17-3.18zm18 8.18h-2v-2h2z"/><path d="m26 28.82v7.18c0 1.36 6 4 17 4s17-2.64 17-4v-7.18c-3.29 2.09-10.16 3.18-17 3.18s-13.71-1.09-17-3.18zm18 8.18h-2v-2h2z"/><path d="m16 24h2v2h-2z"/></g></svg>