<?xml version="1.0" encoding="UTF-8" standalone="no"?>
<svg width="512pt" xmlns="http://www.w3.org/2000/svg" viewBox="0 0 512 512" height="512pt">
 <path d="m458 381.11v-217.45c0-3.1992-1.5312-6.207-4.1172-8.0898l-24.688-17.949 19.438-12.148c2.7891-1.7422 4.543-4.7461 4.6914-8.0312 0.14453-3.2852-1.332-6.4336-3.9531-8.418l-18.039-13.668v-6.3633h16.668c5.5234 0 10-4.4766 10-10v-20c0-32.531-26.469-59-59-59h-341c-0.10156 0-0.19531 0.011719-0.29297 0.015625-0.23047-0.0039062-0.45312-0.015625-0.68359-0.015625-15.746 0-30.375 7.7773-41.191 21.902-10.211 13.332-15.832 30.91-15.832 49.496 0 33.414 21.871 60.602 48.754 60.602h55.324v158.5c0 3.3906 1.7148 6.5469 4.5586 8.3906l19.605 12.711-20.828 18.609c-2.1211 1.8945-3.3359 4.6094-3.3359 7.457v86.664c0 0.53906 0.054687 1.0664 0.13672 1.582-0.082032 0.51953-0.13672 1.0469-0.13672 1.5859 0 25.441 6.5703 46.855 18.996 61.926 12.004 14.555 29.074 22.574 48.062 22.574h274.86c36.395 0 66-29.605 66-66 0-32.293-23.32-59.227-54-64.887zm-375.93-269.11c2.9453-5.5508 4.6133-11.957 4.6133-18.84 0-23.055-14.934-39.16-36.32-39.16-5.5234 0-10 4.4766-10 10s4.4766 10 10 10c10.219 0 16.32 7.1641 16.32 19.16 0 12.238-9.2422 18.84-17.934 18.84-15.586 0-28.754-18.594-28.754-40.602 0-28.34 16.609-51.398 37.023-51.398 14.141 0 25.195 4.3945 32.848 13.059 9.4297 10.668 14.207 27.977 14.207 51.441v27.5zm56.43 364.7c-9.4375-11.445-14.426-28.457-14.426-49.199 0-0.53906-0.054687-1.0664-0.13672-1.5859 0.082032-0.51562 0.13672-1.043 0.13672-1.582v-82.191l27.25-24.352c2.3242-2.0742 3.5508-5.1172 3.3086-8.2266-0.23828-3.1055-1.9141-5.9258-4.5273-7.6211l-26.031-16.875v-200.57c0-28.371-6.418-50.066-19.062-64.5h293.98c21.504 0 39 17.496 39 39v10h-16.668c-5.5195 0-10 4.4766-10 10v21.332c0 3.1328 1.4688 6.082 3.9648 7.9727l10.434 7.9062-19.695 12.309c-2.8203 1.7617-4.5781 4.8086-4.6953 8.1289-0.11719 3.3203 1.4258 6.4844 4.1133 8.4375l32.547 23.672v211.24h-254.23c-0.49219 0-0.97656 0.046875-1.4531 0.11719-0.96094-0.070313-1.9297-0.11719-2.9102-0.11719-21.27 0-37.934 17.062-37.934 38.84 0 23.059 14.934 39.16 36.32 39.16 5.5234 0 10-4.4766 10-10s-4.4766-10-10-10c-10.219 0-16.32-7.1641-16.32-19.16 0-12.238 9.2422-18.84 17.934-18.84 15.586 0 28.754 18.594 28.754 40.602 0 28.34-16.605 51.398-37.02 51.398-13.094 0-24.379-5.2891-32.633-15.301zm307.5 15.301h-235.21c0.51562-0.625 1.0312-1.25 1.5312-1.9023 9.5859-12.516 15.125-28.777 15.77-46.098h155.91c5.5234 0 10-4.4766 10-10s-4.4766-10-10-10h-157.72c-2.0703-9.0312-5.7812-17.215-10.719-24h230.44c25.363 0 46 20.637 46 46s-20.637 46-46 46z"/>
 <path d="m189.36 98c2.6289 0 5.1992-1.0703 7.0703-2.9297 1.8594-1.8594 2.9297-4.4414 2.9297-7.0703s-1.0703-5.2109-2.9297-7.0703c-1.8711-1.8594-4.4414-2.9297-7.0703-2.9297-2.6406 0-5.2109 1.0703-7.0703 2.9297s-2.9297 4.4414-2.9297 7.0703 1.0703 5.2109 2.9297 7.0703c1.8594 1.8594 4.4297 2.9297 7.0703 2.9297z"/>
 <path d="m232 98h144.36c5.5234 0 10-4.4766 10-10s-4.4766-10-10-10h-144.36c-5.5234 0-10 4.4766-10 10s4.4766 10 10 10z"/>
 <path d="m189.36 154h187c5.5234 0 10-4.4766 10-10s-4.4766-10-10-10h-187c-5.5195 0-10 4.4766-10 10s4.4805 10 10 10z"/>
 <path d="m189.36 210h187c5.5234 0 10-4.4766 10-10s-4.4766-10-10-10h-187c-5.5195 0-10 4.4766-10 10s4.4805 10 10 10z"/>
 <path d="m189.36 266h187c5.5234 0 10-4.4766 10-10s-4.4766-10-10-10h-187c-5.5195 0-10 4.4766-10 10s4.4805 10 10 10z"/>
 <path d="m189.36 322h187c5.5234 0 10-4.4766 10-10s-4.4766-10-10-10h-187c-5.5195 0-10 4.4766-10 10s4.4805 10 10 10z"/>
 <path d="m422.87 424c-2.6328 0-5.2109 1.0703-7.0703 2.9297s-2.9297 4.4414-2.9297 7.0703 1.0664 5.2109 2.9297 7.0703c1.8594 1.8594 4.4375 2.9297 7.0703 2.9297 2.6289 0 5.207-1.0703 7.0664-2.9297 1.8633-1.8594 2.9336-4.4414 2.9336-7.0703s-1.0703-5.2109-2.9336-7.0703c-1.8594-1.8594-4.4375-2.9297-7.0664-2.9297z"/>
</svg>
