<?xml version="1.0" encoding="UTF-8" standalone="no"?>
<!-- Generator: Adobe Illustrator 19.0.0, SVG Export Plug-In . SVG Version: 6.00 Build 0)  -->
<svg id="Capa_1" style="enable-background:new 0 0 512 512" xmlns="http://www.w3.org/2000/svg" xml:space="preserve" viewBox="0 0 512 512" version="1.1" y="0px" x="0px" xmlns:xlink="http://www.w3.org/1999/xlink">
			<path d="m478.5 33.538c-26.24-26.24-91.936-38.88-163.44-31.36-80.75 7.308-156.68 41.606-215.55 97.36-55.756 58.862-90.053 134.79-97.365 215.53-7.504 71.52 5.088 137.2 31.36 163.46 20.8 20.8 66.8 33.44 122.24 33.44 82.336 0 185.33-28.016 256.75-99.44 55.754-58.868 90.052-134.8 97.36-215.55 7.51-71.51-5.11-137.19-31.35-163.44zm-123.06-1.504c29.667-1.025 59.223 4.141 86.784 15.168l-31.696 31.68c-19.277-17.752-40.4-33.388-63.008-46.64 2.65-0.064 5.35-0.208 7.93-0.208zm-323.23 313.41c13.436 23.094 29.355 44.651 47.472 64.288l-32.384 32.368c-12.123-30.71-17.277-63.72-15.088-96.66zm37.6 119.46l32.512-32.496c19.533 18.018 40.965 33.86 63.92 47.248-32.84 2.45-65.82-2.6-96.431-14.75zm320.06-74.99l-0.064 0.048c-45.286 43.187-102.34 72.012-163.97 82.848-42.299-16.523-80.653-41.751-112.58-74.048-32.496-32.1-57.825-70.718-74.32-113.31 11.029-61.416 39.976-118.2 83.2-163.2 45.473-43.63 102.91-72.724 164.99-83.568 42.24 16.448 80.538 41.614 112.4 73.856 32.213 31.867 57.365 70.151 73.824 112.37-10.81 62.06-39.87 119.51-83.48 165zm89.92-225.38l-0.064 0.048c-13.242-22.619-28.879-43.749-46.64-63.024l31.648-31.584c11.87 30.034 17.01 62.314 15.05 94.554z"/>
			<polygon points="342.8 191.87 320.18 169.25 304.74 184.67 268.05 147.99 245.42 170.61 282.11 207.3 256.74 232.67 220.05 195.99 197.42 218.61 234.11 255.3 208.74 280.67 172.05 243.99 149.42 266.61 186.11 303.3 173.09 316.32 195.73 338.95 208.74 325.92 245.42 362.61 268.05 339.99 231.36 303.3 256.74 277.92 293.42 314.61 316.05 291.99 279.36 255.3 304.74 229.92 341.42 266.61 364.05 243.99 327.36 207.3"/>
			<rect y="130.61" x="349.43" height="32" transform="matrix(-.7071 -.7071 .7071 -.7071 520.16 508.69)" width="32"/>
			<rect y="345.57" x="134.47" height="32" transform="matrix(-.7069 -.7074 .7074 -.7069 1.0688 723.58)" width="32"/>
</svg>
