<svg id="Layer_1" enable-background="new 0 0 512 512" height="512" viewBox="0 0 512 512" width="512" xmlns="http://www.w3.org/2000/svg"><g><path fill="#f1f1f1" d="m369.36 375.872c-2.008-6.18-7.768-10.365-14.266-10.365h-64.804l-16.838-51.823 81.981-66.329c3.521-2.848 5.565-7.134 5.565-11.661v-220.694c0-8.284-6.716-15-15-15h-179.998c-8.284 0-15 6.716-15 15v220.695c0 4.528 2.045 8.813 5.565 11.661l81.981 66.329-16.838 51.823h-64.804c-6.499 0-12.258 4.184-14.266 10.365-2.008 6.18.191 12.951 5.449 16.771l52.427 38.091-20.025 61.632c-2.008 6.18.191 12.951 5.449 16.771 2.629 1.91 5.723 2.865 8.817 2.865s6.188-.955 8.817-2.865l52.428-38.093 52.428 38.09c5.256 3.82 12.377 3.819 17.633 0 5.258-3.82 7.458-10.59 5.449-16.771l-20.025-61.631 52.427-38.091c5.257-3.819 7.457-10.59 5.448-16.77zm-113.36-86.656-15-12.136v-247.08h30v247.08zm75-60.68-30 24.272v-222.808h30zm-150-198.536h30v222.808l-30-24.272zm104.034 382.868c-5.258 3.82-7.458 10.59-5.449 16.771l9.127 28.091-23.895-17.361c-5.258-3.82-12.376-3.82-17.634 0l-23.895 17.361 9.127-28.091c2.008-6.18-.191-12.951-5.449-16.771l-23.896-17.361h29.536c6.499 0 12.258-4.184 14.266-10.365l9.127-28.09 9.126 28.09c2.008 6.18 7.768 10.365 14.266 10.365h29.537z"/></g></svg>