<?xml version="1.0" encoding="iso-8859-1"?>
<!-- Generator: Adobe Illustrator 19.0.0, SVG Export Plug-In . SVG Version: 6.00 Build 0)  -->
<svg version="1.1" id="Capa_1" xmlns="http://www.w3.org/2000/svg" xmlns:xlink="http://www.w3.org/1999/xlink" x="0px" y="0px"
	 viewBox="0 0 512 512" style="enable-background:new 0 0 512 512;" xml:space="preserve">
<g>
	<g>
		<g>
			<path d="M478.497,33.538c-26.24-26.24-91.936-38.88-163.44-31.36c-80.75,7.308-156.684,41.606-215.552,97.36
				C43.754,158.402,9.457,234.33,2.145,315.074c-7.504,71.52,5.088,137.2,31.36,163.456c20.8,20.8,66.8,33.44,122.24,33.44
				c82.336,0,185.328-28.016,256.752-99.44c55.754-58.868,90.052-134.802,97.36-215.552
				C517.361,125.474,504.737,59.794,478.497,33.538z M355.441,32.034c29.667-1.025,59.223,4.141,86.784,15.168l-31.696,31.68
				c-19.277-17.752-40.4-33.388-63.008-46.64C350.161,32.178,352.865,32.034,355.441,32.034z M32.209,345.442
				c13.436,23.094,29.355,44.651,47.472,64.288l-32.384,32.368C35.174,411.394,30.02,378.38,32.209,345.442z M69.809,464.898
				l32.512-32.496c19.533,18.018,40.965,33.86,63.92,47.248C133.395,482.098,100.422,477.054,69.809,464.898z M389.873,389.906
				l-0.064,0.048c-45.286,43.187-102.336,72.012-163.968,82.848c-42.299-16.523-80.653-41.751-112.576-74.048
				c-32.496-32.1-57.825-70.718-74.32-113.312c11.029-61.416,39.976-118.197,83.2-163.2c45.473-43.63,102.913-72.724,164.992-83.568
				c42.24,16.448,80.538,41.614,112.4,73.856c32.213,31.867,57.365,70.151,73.824,112.368
				C462.544,286.974,433.479,344.42,389.873,389.906z M479.793,164.53l-0.064,0.048c-13.242-22.619-28.879-43.749-46.64-63.024
				l31.648-31.584C476.612,100.009,481.752,132.288,479.793,164.53z"/>
			<polygon points="342.801,191.874 320.177,169.25 304.737,184.674 268.049,147.986 245.425,170.61 282.113,207.298 
				256.737,232.674 220.049,195.986 197.425,218.61 234.113,255.298 208.737,280.674 172.049,243.986 149.425,266.61 
				186.113,303.298 173.089,316.322 195.729,338.946 208.737,325.922 245.425,362.61 268.049,339.986 231.361,303.298 
				256.737,277.922 293.425,314.61 316.049,291.986 279.361,255.298 304.737,229.922 341.425,266.61 364.049,243.986 
				327.361,207.298 			"/>
			<rect x="349.434" y="130.613" transform="matrix(-0.7071 -0.7071 0.7071 -0.7071 520.1629 508.6852)" width="32" height="32"/>
			<rect x="134.467" y="345.57" transform="matrix(-0.7069 -0.7074 0.7074 -0.7069 1.0688 723.5838)" width="32" height="32"/>
		</g>
	</g>
</g>
<g>
</g>
<g>
</g>
<g>
</g>
<g>
</g>
<g>
</g>
<g>
</g>
<g>
</g>
<g>
</g>
<g>
</g>
<g>
</g>
<g>
</g>
<g>
</g>
<g>
</g>
<g>
</g>
<g>
</g>
</svg>
