<?xml version="1.0" standalone="no"?>
<!DOCTYPE svg PUBLIC "-//W3C//DTD SVG 20010904//EN"
 "http://www.w3.org/TR/2001/REC-SVG-20010904/DTD/svg10.dtd">
<svg version="1.0" xmlns="http://www.w3.org/2000/svg"
 width="136.000000pt" height="195.000000pt" viewBox="0 0 408.000000 380.000000"
 preserveAspectRatio="xMidYMid meet">

<g transform="translate(0.000000,380.000000) scale(0.100000,-0.100000)"
fill="#323332" stroke="none">
<path d="M3774 3663 c-41 -45 -104 -172 -137 -278 -51 -162 -69 -273 -72 -423
-3 -134 -5 -146 -26 -170 -49 -57 -84 -81 -115 -82 -65 0 -77 55 -35 170 17
46 31 92 31 103 0 10 -12 34 -26 53 l-27 35 23 24 24 25 -29 30 c-18 19 -39
30 -55 30 -32 0 -125 -58 -197 -124 -109 -98 -233 -290 -233 -360 0 -29 -13
-47 -90 -129 -102 -108 -159 -143 -218 -134 -54 9 -87 48 -87 101 0 43 23 81
113 186 l30 35 11 -27 c5 -14 14 -29 20 -32 27 -17 87 102 98 194 4 35 1 50
-13 67 -32 37 -63 38 -116 3 -89 -59 -248 -306 -248 -384 0 -24 -14 -49 -55
-99 -61 -74 -113 -113 -164 -123 l-34 -7 48 59 c65 79 97 154 98 227 0 57 -14
95 -103 267 -23 43 -100 -16 -100 -77 0 -26 -27 -84 -102 -221 -56 -102 -101
-193 -101 -201 0 -20 -40 -76 -86 -118 -24 -23 -45 -33 -67 -33 -66 0 -77 54
-35 170 17 46 31 92 31 103 0 10 -12 34 -26 53 l-27 35 23 24 24 25 -29 30
c-38 40 -69 38 -141 -8 -122 -80 -248 -221 -316 -355 -26 -52 -30 -69 -25
-113 3 -28 14 -69 25 -90 25 -49 114 -134 140 -134 31 0 82 66 147 189 l60
114 6 -97 c6 -109 25 -149 74 -154 38 -5 114 75 184 196 46 77 56 90 64 75 31
-58 122 -113 187 -113 79 1 172 76 263 213 l45 68 23 -47 c30 -63 89 -120 138
-135 87 -26 171 40 281 220 30 49 58 90 61 91 4 0 12 -13 19 -30 16 -38 113
-130 138 -130 31 0 82 66 147 189 l60 114 6 -97 c6 -108 25 -149 72 -154 38
-5 101 58 171 172 l60 96 28 -51 c35 -66 45 -77 81 -96 74 -38 154 25 233 184
44 88 54 129 38 154 -3 6 -33 -32 -67 -83 -69 -104 -98 -123 -145 -98 -31 17
-72 92 -72 130 0 15 22 71 49 126 93 189 143 364 144 504 0 94 -20 160 -49
160 -9 0 -31 -17 -50 -37z m30 -209 c-1 -72 -26 -175 -67 -274 -50 -123 -57
-128 -57 -40 1 153 72 391 113 377 8 -3 12 -25 11 -63z m-515 -511 c-61 -147
-117 -248 -166 -303 -62 -69 -97 -65 -110 13 -11 72 53 162 230 318 42 38 79
69 82 69 2 0 -14 -44 -36 -97z m-1146 -310 c43 -112 41 -168 -9 -223 l-36 -39
-36 28 c-21 16 -52 32 -70 36 -18 4 -32 10 -30 14 10 26 144 251 149 251 3 0
18 -30 32 -67z m-544 -150 c-61 -147 -117 -248 -166 -303 -62 -69 -97 -65
-110 13 -11 72 53 162 230 318 42 38 79 69 82 69 2 0 -14 -44 -36 -97z"/>
<path d="M701 2939 c-78 -13 -218 -62 -313 -110 -108 -54 -236 -136 -248 -160
-12 -22 -60 -221 -60 -249 0 -11 4 -20 10 -20 5 0 52 31 102 69 51 37 132 91
180 118 85 49 204 100 213 91 2 -2 -29 -97 -69 -211 l-72 -207 -55 -36 c-77
-51 -99 -73 -121 -122 -30 -66 -8 -105 70 -127 16 -5 22 -12 17 -22 -14 -37
-55 -265 -55 -306 0 -57 29 -98 57 -81 19 12 82 164 82 202 1 12 -4 30 -10 40
-8 13 -6 36 7 92 l19 74 80 17 c408 87 665 396 591 710 -45 193 -193 276 -425
238z m286 -208 c34 -16 44 -27 54 -59 38 -128 -79 -320 -251 -411 -96 -51
-280 -107 -280 -86 0 4 5 25 11 45 10 32 20 42 71 66 95 46 102 75 8 38 -23
-9 -43 -14 -45 -12 -3 2 16 65 41 139 29 86 47 155 48 194 l3 60 54 12 c157
37 228 40 286 14z"/>
<path d="M3640 1893 c-68 -74 -123 -160 -194 -300 -54 -108 -78 -134 -92 -98
-8 20 10 75 64 188 36 78 44 102 35 115 -15 23 -69 19 -98 -8 -30 -28 -81
-140 -103 -229 -14 -53 -27 -81 -52 -106 -59 -61 -65 -53 -65 94 0 113 -2 131
-19 150 -11 11 -27 21 -37 21 -12 0 -16 6 -12 20 12 47 -51 65 -123 35 -58
-24 -138 -115 -185 -210 -37 -74 -43 -96 -47 -168 -4 -80 -6 -83 -49 -135 -73
-86 -142 -107 -182 -56 -31 39 -26 70 23 155 71 125 96 230 62 258 -35 29
-116 -29 -160 -117 -32 -62 -66 -176 -66 -218 0 -27 -11 -45 -63 -99 -57 -60
-67 -66 -98 -63 -32 3 -34 5 -37 46 -4 49 16 116 64 216 32 66 33 70 18 104
-18 45 -33 62 -51 62 -8 0 -58 -18 -112 -40 -53 -22 -100 -40 -104 -40 -4 0
-4 13 -1 29 14 70 -48 35 -92 -52 -53 -104 -53 -199 1 -213 21 -5 24 -10 19
-28 -20 -63 -47 -107 -96 -159 -46 -49 -60 -58 -84 -55 -27 3 -29 6 -32 51 -3
51 4 82 62 245 33 91 36 106 26 142 -9 33 -15 40 -35 40 -33 0 -64 -43 -135
-193 -61 -128 -197 -339 -230 -357 -23 -12 -39 6 -47 52 -4 30 2 45 42 104 61
88 115 200 115 238 0 28 -1 29 -45 24 -71 -8 -92 -29 -145 -141 -55 -117 -70
-165 -70 -222 2 -105 80 -215 153 -215 40 0 90 68 154 211 31 71 58 127 60
125 2 -1 -2 -27 -7 -57 -30 -155 -8 -235 64 -233 50 2 81 33 170 169 85 130
118 191 141 263 16 50 20 54 87 88 39 19 71 34 73 32 2 -2 -10 -35 -25 -74
-44 -109 -54 -184 -36 -248 24 -80 70 -110 126 -81 32 17 101 104 148 186 15
27 29 49 32 49 4 0 11 -15 18 -34 35 -97 113 -157 178 -136 43 15 113 92 155
175 19 36 37 65 41 65 4 0 9 -9 13 -19 16 -52 125 -111 179 -97 38 9 102 70
133 127 21 37 37 52 70 64 25 10 57 34 77 57 l34 41 19 -44 c39 -86 93 -130
121 -96 5 6 29 57 52 112 22 55 57 129 77 165 39 71 94 152 100 147 2 -2 -11
-57 -28 -123 -37 -143 -37 -218 1 -259 50 -53 97 -21 200 137 79 120 88 140
71 166 -6 10 -20 -1 -53 -45 -60 -77 -82 -95 -110 -91 -47 6 -34 97 39 257 18
40 33 84 33 96 0 28 -40 89 -61 93 -9 2 -39 -22 -69 -55z m-646 -314 c-17 -81
-13 -141 12 -194 15 -33 15 -36 -4 -60 -51 -64 -107 -87 -147 -61 -23 15 -25
23 -25 92 0 83 10 111 68 184 43 55 105 121 109 117 1 -2 -4 -37 -13 -78z"/>
<path d="M2557 1879 c-30 -23 -50 -80 -45 -124 4 -41 46 -65 82 -46 52 28 77
131 41 171 -23 25 -45 25 -78 -1z"/>
<path d="M988 1770 c-113 -33 -273 -229 -333 -407 -37 -111 -48 -207 -43 -370
5 -120 10 -161 29 -218 30 -87 53 -96 102 -41 31 34 130 246 120 256 -9 9 -62
-62 -68 -92 -10 -44 -22 -33 -36 30 -15 71 0 247 31 367 30 115 91 234 149
294 92 94 106 70 105 -169 -1 -98 -8 -231 -18 -302 -24 -188 -65 -400 -81
-423 -8 -11 -44 -58 -80 -105 -75 -98 -157 -256 -181 -350 -17 -70 -15 -150 6
-175 21 -25 65 -18 93 15 51 60 134 263 207 504 l42 138 90 87 c83 79 91 90
84 115 l-7 28 -65 -62 c-37 -34 -68 -60 -70 -58 -2 3 10 69 26 149 52 250 65
638 25 722 -27 57 -75 82 -127 67z"/>
</g>
</svg>
