<?xml version="1.0" encoding="UTF-8" standalone="no"?>
<!-- Generator: Adobe Illustrator 19.0.0, SVG Export Plug-In . SVG Version: 6.00 Build 0)  -->
<svg id="Capa_1" style="enable-background:new 0 0 512 512" xmlns="http://www.w3.org/2000/svg" xml:space="preserve" viewBox="0 0 512 512" version="1.1" y="0px" x="0px" xmlns:xlink="http://www.w3.org/1999/xlink" fill="#4ea575">
		<polygon points="333.2 34.213 330.8 0 9.545 22.591 39.863 453.71 68.863 451.67 68.863 79.817 420.93 79.817 420.93 478.34 456.18 482.14 502.46 52.438"/>
		<path d="m98.884 109.84v402.16h292.03v-402.16h-292.03zm96.206 68.45c18.508 0 33.097 6.755 42.418 18.912l-20.128 17.966c-5.539-7.025-12.157-11.078-20.668-11.078-13.239 0-22.154 9.186-22.154 23.64s8.916 23.64 22.154 23.64c8.511 0 15.13-4.053 20.668-11.078l20.128 17.966c-9.321 12.157-23.911 18.912-42.418 18.912-30.395 0-52.684-20.398-52.684-49.442 0-29.05 22.29-49.44 52.68-49.44zm147.71 270.28h-195.8v-30.02h195.8v30.02zm0-53.4h-195.8v-30.021h195.8v30.02zm0-53.4h-195.8v-30.021h195.8v30.02zm-35.04-66.76h-31.341l-39.986-94.562h34.313l22.56 55.251 23.101-55.251h31.339l-39.98 94.56z"/>
</svg>
