<?xml version="1.0" encoding="UTF-8" standalone="no"?>
<svg
   xmlns:dc="http://purl.org/dc/elements/1.1/"
   xmlns:cc="http://creativecommons.org/ns#"
   xmlns:rdf="http://www.w3.org/1999/02/22-rdf-syntax-ns#"
   xmlns:svg="http://www.w3.org/2000/svg"
   xmlns="http://www.w3.org/2000/svg"
   viewBox="0 0 251.06799 251.06799"
   height="96"
   width="96"
   xml:space="preserve"
   id="svg2"
   version="1.1"><metadata
     id="metadata8"><rdf:RDF><cc:Work
         rdf:about=""><dc:format>image/svg+xml</dc:format><dc:type
           rdf:resource="http://purl.org/dc/dcmitype/StillImage" /></cc:Work></rdf:RDF></metadata><defs
     id="defs6"><clipPath
       id="clipPath18"
       clipPathUnits="userSpaceOnUse"><path
         id="path16"
         d="M 0,188.301 H 188.301 V 0 H 0 Z" /></clipPath></defs><g
     transform="matrix(1.3333333,0,0,-1.3333333,0,251.068)"
     id="g10"><g
       id="g12"><g
         clip-path="url(#clipPath18)"
         id="g14"><g
           transform="translate(188.3011,94.1506)"
           id="g20"><path
             id="path22"
             style="fill:#0090b0;fill-opacity:1;fill-rule:nonzero;stroke:none"
             d="m 0,0 c 0,-51.998 -42.153,-94.151 -94.151,-94.151 -51.997,0 -94.15,42.153 -94.15,94.151 0,51.998 42.153,94.151 94.15,94.151 C -42.153,94.151 0,51.998 0,0" /></g><g
           transform="translate(94.307)"
           id="g24"><path
             id="path26"
             style="fill:#00a5cb;fill-opacity:1;fill-rule:nonzero;stroke:none"
             d="m 0,0 c -51.998,0 -94.151,42.153 -94.151,94.151 0,51.997 42.153,94.15 94.151,94.15" /></g><g
           transform="translate(104.4155,146.643)"
           id="g28"><path
             id="path30"
             style="fill:#ffffff;fill-opacity:1;fill-rule:nonzero;stroke:none"
             d="m 0,0 -18.436,-13.432 c -16.974,-3.203 -30.081,-17.46 -31.534,-34.982 l -12.37,17.374 -14.233,-19.237 c 0.688,33.024 25.959,60.103 58.222,63.624 z" /></g><g
           transform="translate(145.883,82.8497)"
           id="g32"><path
             id="path34"
             style="fill:#ffffff;fill-opacity:1;fill-rule:nonzero;stroke:none"
             d="m 0,0 -14.474,19.478 c -3.221,16.798 -17.273,29.788 -34.584,31.392 l 17.927,12.923 -18.676,13.672 C -16.858,76.034 9.829,50.113 12.486,17.49 Z" /></g><g
           transform="translate(42.0755,105.2678)"
           id="g36"><path
             id="path38"
             style="fill:#ffffff;fill-opacity:1;fill-rule:nonzero;stroke:none"
             d="m 0,0 12.997,-18.001 c 3.389,-16.762 17.587,-29.642 34.979,-31.045 L 30.587,-62.432 47.75,-75.591 c -31.673,1.621 -57.447,25.886 -61.456,56.881 z" /></g><g
           transform="translate(82.9986,42.8359)"
           id="g40"><path
             id="path42"
             style="fill:#ffffff;fill-opacity:1;fill-rule:nonzero;stroke:none"
             d="m 0,0 18.042,14.039 c 16.587,3.404 29.35,17.4 30.905,34.581 L 62.884,29.678 75.4,47.199 C 73.025,15.665 48.209,-9.705 16.908,-12.905 Z" /></g><g
           transform="translate(80.4814,137.5943)"
           id="g44"><path
             id="path46"
             style="fill:#ffffff;fill-opacity:1;fill-rule:nonzero;stroke:none"
             d="M 0,0 8.794,8.794 -0.031,17.619 0.417,27.507 24.134,8.794 -0.031,-10.848 Z" /></g><g
           transform="translate(105.6259,51.3661)"
           id="g48"><path
             id="path50"
             style="fill:#ffffff;fill-opacity:1;fill-rule:nonzero;stroke:none"
             d="m 0,0 -8.794,-8.794 8.825,-8.825 -0.448,-9.888 -22.716,18.713 23.164,19.642 z" /></g><g
           transform="translate(50.2305,81.9063)"
           id="g52"><path
             id="path54"
             style="fill:#ffffff;fill-opacity:1;fill-rule:nonzero;stroke:none"
             d="m 0,0 -8.794,8.794 -8.825,-8.825 -9.888,0.448 18.713,23.717 19.642,-24.165 z" /></g><g
           transform="translate(137.0698,106.3616)"
           id="g56"><path
             id="path58"
             style="fill:#ffffff;fill-opacity:1;fill-rule:nonzero;stroke:none"
             d="M 0,0 8.794,-8.794 17.619,0.031 27.507,-0.417 8.794,-24.134 -10.848,0.031 Z" /></g></g></g></g></svg>